<svg width="25" height="24" viewBox="0 0 25 24" fill="none" xmlns="http://www.w3.org/2000/svg">
<path fill-rule="evenodd" clip-rule="evenodd" d="M7.43142 1.00003H14.8984V4.47304C14.8984 6.638 16.7601 8.30439 18.9487 8.31013L18.9507 8.31014H22.4934L22.4999 8.31011V18.3114C22.5192 20.8239 20.3974 22.8976 17.7047 22.9995H7.43142C7.40489 23.0003 7.37893 23 7.35279 22.9997L7.31311 22.9995C4.59596 22.9431 2.44204 20.8442 2.50119 18.3114V5.46992C2.5642 2.97786 4.7567 0.990445 7.43142 1.00003ZM8.5 11.4958C7.94772 11.4958 7.5 11.9436 7.5 12.4958C7.5 13.0481 7.94772 13.4958 8.5 13.4958H12.5C13.0523 13.4958 13.5 13.0481 13.5 12.4958C13.5 11.9436 13.0523 11.4958 12.5 11.4958H8.5ZM8.5 16.5C7.94772 16.5 7.5 16.9477 7.5 17.5C7.5 18.0523 7.94772 18.5 8.5 18.5H15.5C16.0523 18.5 16.5 18.0523 16.5 17.5C16.5 16.9477 16.0523 16.5 15.5 16.5H8.5Z" fill="#757575"/>
<path d="M16.3984 1.39986L21.9694 6.80917H18.9516C17.4887 6.80482 16.3984 5.71206 16.3984 4.47304V1.39986Z" fill="#757575"/>
</svg>
