<svg width="20" height="21" viewBox="0 0 20 21" fill="none" xmlns="http://www.w3.org/2000/svg">
<path fill-rule="evenodd" clip-rule="evenodd" d="M5.78642 19.574C9.48977 21.2867 14.0152 20.6264 17.0714 17.5699C20.9727 13.6681 20.9797 7.33501 17.0714 3.4262C13.17 -0.475568 6.8316 -0.475568 2.93026 3.42721C-0.125891 6.48269 -0.787169 11.0096 0.926325 14.7124C1.14642 15.2602 1.31726 15.7004 1.31726 16.1266C1.31726 16.5875 1.1456 17.0909 0.979003 17.5794C0.714084 18.3563 0.461982 19.0956 0.93336 19.567C1.40623 20.0393 2.14823 19.7842 2.92576 19.5169C3.4107 19.3502 3.90946 19.1787 4.36537 19.176C4.79148 19.176 5.23971 19.3539 5.78642 19.574ZM11.2841 8.03557L10.4067 6.3653C10.1897 5.95231 9.56334 5.95231 9.34638 6.3653L8.46952 8.03557C8.38354 8.19955 8.21706 8.31325 8.02459 8.33956L6.06191 8.60878C5.57699 8.6755 5.38402 9.23554 5.73496 9.55644L7.15423 10.856C7.29371 10.9838 7.3572 11.1675 7.32421 11.3479L6.98976 13.1827C6.90677 13.6365 7.41369 13.9828 7.84712 13.7681L9.60134 12.9012C9.77381 12.8162 9.97978 12.8162 10.1517 12.9012L11.906 13.7681C12.3394 13.9828 12.8463 13.6365 12.7638 13.1827L12.4289 11.3479C12.3959 11.1675 12.4594 10.9838 12.5989 10.856L14.0181 9.55644C14.3691 9.23554 14.1761 8.6755 13.6912 8.60878L11.7285 8.33956C11.536 8.31325 11.3701 8.19955 11.2841 8.03557Z" fill="#404040"/>
</svg>
