<svg width="20" height="21" viewBox="0 0 20 21" fill="none" xmlns="http://www.w3.org/2000/svg">
<path fill-rule="evenodd" clip-rule="evenodd" d="M19.0091 4.9381L19.709 6.06191V6.07143C20.2934 7.01902 19.9445 8.22535 18.9268 8.77619C18.6011 8.94879 18.3311 9.19865 18.1446 9.5C17.8577 9.95558 17.779 10.4982 17.9258 11.0076C18.0726 11.5171 18.4329 11.9514 18.9268 12.2143C19.4207 12.4772 19.7809 12.9115 19.9277 13.4209C20.0745 13.9304 19.9958 14.473 19.709 14.9286L18.9679 16.0714C18.3723 17.0189 17.061 17.3425 16.0347 16.7952C15.7206 16.6291 15.367 16.5375 15.0054 16.5286C14.4341 16.526 13.8854 16.7349 13.4814 17.1088C13.0774 17.4826 12.8516 17.9904 12.8544 18.5191C12.8487 19.6146 11.8873 20.5 10.7033 20.5H9.29327C8.10527 20.5 7.1422 19.6088 7.1422 18.5095C7.13844 18.1741 7.03903 17.8456 6.85402 17.5571C6.57187 17.1008 6.1044 16.7676 5.55551 16.6317C5.00663 16.4958 4.4218 16.5684 3.93104 16.8333C3.43182 17.0923 2.84166 17.1565 2.29115 17.0117C1.74065 16.8669 1.27519 16.5251 0.997768 16.0619L0.287607 14.9286C-0.302849 13.9817 0.0472167 12.7712 1.06981 12.2238C1.73536 11.8682 2.14536 11.2111 2.14536 10.5C2.14536 9.78887 1.73536 9.13175 1.06981 8.77619C0.0459165 8.22505 -0.303767 7.01163 0.287607 6.06191L1.03894 4.91905C1.63103 3.96813 2.94317 3.64009 3.97221 4.18571C4.28392 4.35691 4.63897 4.4489 5.00143 4.45238C6.17748 4.45249 7.13561 3.57861 7.1525 2.49048C7.14976 1.96345 7.37409 1.45713 7.77586 1.08357C8.17763 0.710008 8.72371 0.499994 9.29327 0.5H10.7033C11.2847 0.499779 11.8414 0.717315 12.2466 1.10305C12.6518 1.48879 12.8711 2.00988 12.8544 2.54762C12.8581 2.88302 12.9575 3.21156 13.1425 3.5C13.4301 3.9538 13.901 4.28311 14.4512 4.41532C15.0015 4.54753 15.586 4.47178 16.0758 4.20476C17.1049 3.65914 18.417 3.98718 19.0091 4.9381ZM10 13.2273C11.5062 13.2273 12.7273 12.0062 12.7273 10.5C12.7273 8.99377 11.5062 7.77273 10 7.77273C8.49377 7.77273 7.27273 8.99377 7.27273 10.5C7.27273 12.0062 8.49377 13.2273 10 13.2273Z" fill="#404040"/>
</svg>
