<svg width="24" height="24" viewBox="0 0 24 24" fill="none" xmlns="http://www.w3.org/2000/svg">
<path fill-rule="evenodd" clip-rule="evenodd" d="M2 6.375C2 3.09348 2.03514 2 6.375 2C10.7149 2 10.75 3.09348 10.75 6.375C10.75 9.65652 10.7638 10.75 6.375 10.75C1.98616 10.75 2 9.65652 2 6.375Z" fill="#757575"/>
<path fill-rule="evenodd" clip-rule="evenodd" d="M13.25 6.375C13.25 3.09348 13.2851 2 17.625 2C21.9649 2 22 3.09348 22 6.375C22 9.65652 22.0138 10.75 17.625 10.75C13.2362 10.75 13.25 9.65652 13.25 6.375Z" fill="#757575"/>
<path fill-rule="evenodd" clip-rule="evenodd" d="M2 17.625C2 14.3435 2.03514 13.25 6.375 13.25C10.7149 13.25 10.75 14.3435 10.75 17.625C10.75 20.9065 10.7638 22 6.375 22C1.98616 22 2 20.9065 2 17.625Z" fill="#757575"/>
<path fill-rule="evenodd" clip-rule="evenodd" d="M13.25 17.625C13.25 14.3435 13.2851 13.25 17.625 13.25C21.9649 13.25 22 14.3435 22 17.625C22 20.9065 22.0138 22 17.625 22C13.2362 22 13.25 20.9065 13.25 17.625Z" fill="#757575"/>
</svg>
