<svg width="22" height="22" viewBox="0 0 22 22" fill="none" xmlns="http://www.w3.org/2000/svg">
<path fill-rule="evenodd" clip-rule="evenodd" d="M18.7785 18.7768C15.4167 22.139 10.4388 22.8654 6.36506 20.9814C5.76368 20.7393 5.27063 20.5436 4.80191 20.5436C3.49634 20.5513 1.87128 21.8173 1.0267 20.9737C0.182109 20.129 1.44899 18.5027 1.44899 17.1892C1.44899 16.7204 1.26106 16.2362 1.01896 15.6336C-0.865886 11.5606 -0.13848 6.58096 3.22328 3.21993C7.51476 -1.07312 14.487 -1.07312 18.7785 3.21882C23.0777 7.51851 23.07 14.4849 18.7785 18.7768Z" fill="#404040"/>
<path fill-rule="evenodd" clip-rule="evenodd" d="M7.4955 11.5003H7.5045H7.4955Z" fill="#404040"/>
<path d="M7.4955 11.5003H7.5045" stroke="white" stroke-width="2" stroke-linecap="round" stroke-linejoin="round"/>
<path fill-rule="evenodd" clip-rule="evenodd" d="M11.4955 11.5001H11.5045H11.4955Z" fill="#404040"/>
<path d="M11.4955 11.5001H11.5045" stroke="white" stroke-width="2" stroke-linecap="round" stroke-linejoin="round"/>
<path fill-rule="evenodd" clip-rule="evenodd" d="M15.4955 11.4998H15.5045H15.4955Z" fill="#404040"/>
<path d="M15.4955 11.4998H15.5045" stroke="white" stroke-width="2" stroke-linecap="round" stroke-linejoin="round"/>
</svg>
