<svg width="22" height="20" viewBox="0 0 22 20" fill="none" xmlns="http://www.w3.org/2000/svg">
<path fill-rule="evenodd" clip-rule="evenodd" d="M14.6151 0.369542C15.4254 0.701946 15.8563 1.59107 16.2017 2.30382C16.3683 2.64758 16.515 2.95031 16.6748 3.12977C17.1659 3.68132 17.8688 3.86885 18.2576 3.86885C20.3244 3.86885 22 5.59583 22 7.72483V14.8276C22 17.6835 19.7524 20 16.9816 20H5.01838C2.24638 20 0 17.6835 0 14.8276V7.72483C0 5.59583 1.67557 3.86885 3.74238 3.86885C4.13005 3.86885 4.83287 3.68132 5.32519 3.12977C5.48504 2.95025 5.63167 2.64738 5.79816 2.30348C6.14319 1.59079 6.57352 0.701894 7.38368 0.369542C8.58595 -0.123181 13.4141 -0.123181 14.6151 0.369542ZM14.7796 11.4946C14.7796 9.34228 13.0874 7.59814 10.9992 7.59814C8.91097 7.59814 7.21875 9.34228 7.21875 11.4946C7.21875 13.6469 8.91097 15.391 10.9992 15.391C13.0874 15.391 14.7796 13.6469 14.7796 11.4946ZM17 8C17.5523 8 18 7.55228 18 7C18 6.44772 17.5523 6 17 6C16.4477 6 16 6.44772 16 7C16 7.55228 16.4477 8 17 8Z" fill="#404040"/>
</svg>
