<svg width="20" height="17" viewBox="0 0 20 17" fill="none" xmlns="http://www.w3.org/2000/svg">
<path d="M18.85 1.36514L19.9813 5.50458C19.9938 5.54915 20 5.596 20 5.64286C20 7.21772 18.6688 8.50001 17.0312 8.50001C16.0788 8.50001 15.2313 8.06686 14.6875 7.39486C14.1438 8.06686 13.2963 8.50001 12.3438 8.50001C11.3913 8.50001 10.5438 8.06686 10 7.39486C9.45625 8.06686 8.6075 8.50001 7.65625 8.50001C6.705 8.50001 5.85625 8.06686 5.3125 7.39486C4.76875 8.06686 3.92 8.50001 2.96875 8.50001C1.33125 8.50001 0 7.21772 0 5.64286C0 5.596 0.00625 5.54915 0.01875 5.50458L1.15 1.36514C1.29 0.856572 1.79 0.5 2.36375 0.5H17.6375C18.2113 0.5 18.7113 0.856572 18.85 1.36514Z" fill="#404040"/>
<path d="M10.0747 12.4306H9.35787V11.5622H10.0747C10.2539 11.5622 10.3904 11.5996 10.4843 11.6744C10.5824 11.7492 10.6315 11.8575 10.6315 11.9993C10.6315 12.1411 10.5824 12.2494 10.4843 12.3242C10.3904 12.3951 10.2539 12.4306 10.0747 12.4306Z" fill="#404040"/>
<path d="M10.5867 13.9725C10.4885 14.0473 10.3477 14.0847 10.1643 14.0847H9.35787V13.169H10.1515C10.3349 13.169 10.4779 13.2104 10.5803 13.2931C10.6869 13.3758 10.7403 13.49 10.7403 13.6358C10.7403 13.7815 10.6891 13.8937 10.5867 13.9725Z" fill="#404040"/>
<path fill-rule="evenodd" clip-rule="evenodd" d="M14.6875 8.97085C15.3713 9.40514 16.18 9.64285 17.0312 9.64285C17.645 9.64285 18.2238 9.51142 18.75 9.28742V15.3571C18.75 15.988 18.19 16.5 17.5 16.5H2.5C1.81 16.5 1.25 15.988 1.25 15.3571V9.28742C1.77625 9.51142 2.355 9.64285 2.96875 9.64285C3.82 9.64285 4.62875 9.40514 5.3125 8.97085C6.68 9.84057 8.6325 9.84057 10 8.97085C11.3675 9.84057 13.32 9.84057 14.6875 8.97085ZM11.6107 13.1336C11.4528 12.9446 11.2437 12.8244 10.9835 12.7732C11.2139 12.7102 11.3973 12.598 11.5339 12.4365C11.6747 12.275 11.7451 12.0722 11.7451 11.828C11.7451 11.4972 11.6149 11.2353 11.3547 11.0423C11.0987 10.8493 10.7424 10.7528 10.2859 10.7528H8.26347V14.9H10.3563C10.8256 14.9 11.1904 14.7996 11.4507 14.5987C11.7152 14.3939 11.8475 14.1182 11.8475 13.7716C11.8475 13.5314 11.7685 13.3187 11.6107 13.1336Z" fill="#404040"/>
</svg>
