<svg width="20" height="19" viewBox="0 0 20 19" fill="none" xmlns="http://www.w3.org/2000/svg">
<path fill-rule="evenodd" clip-rule="evenodd" d="M11.4286 4.08541C11.4286 2.10541 9.88846 0.5 7.98899 0.5H3.43865C1.54011 0.5 0 2.10541 0 4.08541V14.9146C0 16.8946 1.54011 18.5 3.43865 18.5H7.99832C9.89219 18.5 11.4286 16.8995 11.4286 14.9253V10.9211H16.7482L15.517 12.146C15.1451 12.516 15.1451 13.1158 15.5171 13.4857C15.8891 13.8557 16.4921 13.8556 16.864 13.4856L19.7211 10.643C19.8997 10.4653 20 10.2244 20 9.97311C20 9.72186 19.8996 9.4809 19.721 9.30325L16.8639 6.46163C16.4919 6.09169 15.8889 6.09174 15.517 6.46175C15.1451 6.83175 15.1451 7.43159 15.5171 7.80153L16.7486 9.02632H11.4286V4.08541ZM11.4286 9.02632H7.61905C7.09306 9.02632 6.66667 9.45047 6.66667 9.97368C6.66667 10.4969 7.09306 10.9211 7.61905 10.9211H11.4286V9.02632Z" fill="#404040"/>
</svg>
