<svg width="20" height="21" viewBox="0 0 20 21" fill="none" xmlns="http://www.w3.org/2000/svg">
<path fill-rule="evenodd" clip-rule="evenodd" d="M8.60166 11.9023C12.4008 15.7003 13.2626 11.3064 15.6816 13.7236C18.0136 16.055 19.3539 16.5221 16.3993 19.4759C16.0292 19.7734 13.6777 23.3517 5.41391 15.0902C-2.85093 6.82762 0.725319 4.47376 1.02283 4.10376C3.98464 1.14176 4.44368 2.48989 6.77571 4.82127C9.19463 7.23952 4.80253 8.1042 8.60166 11.9023Z" fill="#404040"/>
<path fill-rule="evenodd" clip-rule="evenodd" d="M13.9085 8.67458C15.4956 9.40858 17.4351 9.12558 18.7449 7.81566C20.4169 6.14347 20.4199 3.42929 18.7449 1.75409C17.0729 0.0818995 14.3564 0.0818994 12.6844 1.75452C11.3746 3.06401 11.0912 5.00413 11.8256 6.59102C11.9199 6.82578 11.9931 7.01445 11.9931 7.19709C11.9931 7.39466 11.9195 7.6104 11.8481 7.81976C11.7346 8.1527 11.6266 8.46952 11.8286 8.67156C12.0312 8.87398 12.3492 8.76466 12.6825 8.6501C12.8903 8.57865 13.1041 8.50516 13.2994 8.504C13.4821 8.504 13.6742 8.58024 13.9085 8.67458ZM14.2861 4.78571C14.2861 5.04871 14.0729 5.2619 13.8099 5.2619C13.547 5.2619 13.3338 5.04871 13.3338 4.78571C13.3338 4.52272 13.547 4.30952 13.8099 4.30952C14.0729 4.30952 14.2861 4.52272 14.2861 4.78571ZM16.1909 4.78571C16.1909 5.04871 15.9777 5.2619 15.7147 5.2619C15.4517 5.2619 15.2385 5.04871 15.2385 4.78571C15.2385 4.52272 15.4517 4.30952 15.7147 4.30952C15.9777 4.30952 16.1909 4.52272 16.1909 4.78571ZM17.6195 5.2619C17.8825 5.2619 18.0957 5.04871 18.0957 4.78571C18.0957 4.52272 17.8825 4.30952 17.6195 4.30952C17.3565 4.30952 17.1433 4.52272 17.1433 4.78571C17.1433 5.04871 17.3565 5.2619 17.6195 5.2619Z" fill="#404040"/>
</svg>
