<svg width="25" height="24" viewBox="0 0 25 24" fill="none" xmlns="http://www.w3.org/2000/svg">
<path fill-rule="evenodd" clip-rule="evenodd" d="M7.86334 1.00478L17.0911 1C20.4322 1 22.5 3.17849 22.5 6.50538V17.4946C22.5 20.8048 20.4478 22.9761 17.1355 22.9964L7.90774 23C4.56661 23 2.5 20.8215 2.5 17.4946V6.50538C2.5 3.19522 4.551 1.0251 7.86334 1.00478ZM7.50017 6C6.94788 6 6.50017 6.44772 6.50017 7C6.50017 7.55228 6.94788 8 7.50017 8H11.316C11.8682 8 12.316 7.55228 12.316 7C12.316 6.44772 11.8682 6 11.316 6H7.50017ZM7.5 10.9942C6.94772 10.9942 6.5 11.4419 6.5 11.9942C6.5 12.5464 6.94772 12.9942 7.5 12.9942H16C16.5523 12.9942 17 12.5464 17 11.9942C17 11.4419 16.5523 10.9942 16 10.9942H7.5ZM7.5 16C6.94772 16 6.5 16.4477 6.5 17C6.5 17.5523 6.94772 18 7.5 18H17.5C18.0523 18 18.5 17.5523 18.5 17C18.5 16.4477 18.0523 16 17.5 16H7.5Z" fill="#757575"/>
</svg>
