<svg width="20" height="15" viewBox="0 0 20 15" fill="none" xmlns="http://www.w3.org/2000/svg">
<path fill-rule="evenodd" clip-rule="evenodd" d="M10.7785 0.5H3.29892C1.47789 0.5 0.00104297 1.77527 0.00104297 3.34975L0 5.693C1.20567 5.693 2.17668 6.45906 2.17668 7.5009C2.17668 8.54274 1.20567 9.38181 0 9.38181V11.6503C0 13.2247 1.4758 14.5 3.29787 14.5H10.7785V12.5405C10.7785 11.9606 11.2582 11.4905 11.85 11.4905C12.4417 11.4905 12.9214 11.9606 12.9214 12.5405V14.5H16.7021C18.5242 14.5 20 13.2247 20 11.6503V9.38181C18.7943 9.38181 17.8233 8.54274 17.8233 7.5009C17.8233 6.45906 18.7943 5.61909 20 5.61909L19.999 3.34975C19.999 1.77527 18.5221 0.5 16.7011 0.5H12.9213V2.8368C12.9213 3.41669 12.4416 3.8868 11.8499 3.8868C11.2582 3.8868 10.7785 3.41669 10.7785 2.8368V0.5ZM12.9214 5.31584C12.9214 4.73594 12.4417 4.26584 11.85 4.26584C11.2583 4.26584 10.7786 4.73594 10.7786 5.31584V9.53421C10.7786 10.1141 11.2583 10.5842 11.85 10.5842C12.4417 10.5842 12.9214 10.1141 12.9214 9.53421V5.31584Z" fill="#404040"/>
</svg>
