<svg width="17" height="18" viewBox="0 0 17 18" fill="none" xmlns="http://www.w3.org/2000/svg">
<path fill-rule="evenodd" clip-rule="evenodd" d="M14.2676 4.55542C14.2676 4.55542 13.8276 11.6692 13.5723 14.6658C13.4508 16.097 12.7725 16.9357 11.6616 16.9621C9.54754 17.0117 7.43103 17.0149 5.31777 16.9568C4.24898 16.9283 3.5821 16.0791 3.46298 14.6732C3.20612 11.6502 2.76855 4.55542 2.76855 4.55542" fill="#404040"/>
<path d="M14.2676 4.55542C14.2676 4.55542 13.8276 11.6692 13.5723 14.6658C13.4508 16.097 12.7725 16.9357 11.6616 16.9621C9.54754 17.0117 7.43103 17.0149 5.31777 16.9568C4.24898 16.9283 3.5821 16.0791 3.46298 14.6732C3.20612 11.6502 2.76855 4.55542 2.76855 4.55542" stroke="#404040" stroke-width="2" stroke-linecap="round" stroke-linejoin="round"/>
<path d="M6.30664 8.11084L6.30664 14.3331" stroke="white" stroke-width="2" stroke-linecap="round"/>
<path d="M10.7305 8.11084L10.7305 14.3331" stroke="white" stroke-width="2" stroke-linecap="round"/>
<path d="M16 4.10069H1" stroke="#404040" stroke-width="2" stroke-linecap="round" stroke-linejoin="round"/>
<path d="M13.1097 4.10133C12.4153 4.10133 11.8174 3.608 11.6811 2.92444L11.4662 1.84356C11.3335 1.34489 10.8842 1 10.372 1H6.62778C6.11563 1 5.66629 1.34489 5.53361 1.84356L5.31867 2.92444C5.18245 3.608 4.5845 4.10133 3.89014 4.10133" stroke="#404040" stroke-width="2" stroke-linecap="round" stroke-linejoin="round"/>
</svg>
