<svg width="18" height="22" viewBox="0 0 18 22" fill="none" xmlns="http://www.w3.org/2000/svg">
<path d="M17.2265 10.6088C16.4531 9.6706 16.1016 8.85756 16.1016 7.47616V7.00647C16.1016 5.2064 15.7028 4.04659 14.8357 2.88677C13.4993 1.08559 11.2494 0 9.0468 0H8.9532C6.79696 0 4.61759 1.03574 3.258 2.76382C2.34353 3.94688 1.8984 5.15655 1.8984 7.00647V7.47616C1.8984 8.85756 1.57007 9.6706 0.77346 10.6088C0.187317 11.3001 0 12.1885 0 13.15C0 14.1126 0.304126 15.0243 0.914474 15.7655C1.71108 16.6538 2.83602 17.2209 3.98515 17.3196C5.64888 17.5167 7.31255 17.5909 9.00053 17.5909C10.6874 17.5909 12.3512 17.4669 14.0159 17.3196C15.1639 17.2209 16.2889 16.6538 17.0855 15.7655C17.6948 15.0243 18 14.1126 18 13.15C18 12.1885 17.8127 11.3001 17.2265 10.6088Z" fill="#404040"/>
<path d="M11.127 18.9516C10.5976 18.8342 7.37232 18.8342 6.84296 18.9516C6.39046 19.0602 5.90112 19.3127 5.90112 19.8665C5.92743 20.3949 6.22524 20.8614 6.63776 21.1571L6.6367 21.1582C7.17019 21.5902 7.79638 21.8649 8.452 21.9636C8.80131 22.0134 9.15697 22.0112 9.51898 21.9636C10.1735 21.8649 10.7997 21.5902 11.3333 21.1582L11.3322 21.1571C11.7447 20.8614 12.0425 20.3949 12.0688 19.8665C12.0688 19.3127 11.5795 19.0602 11.127 18.9516Z" fill="#404040"/>
</svg>
